<svg xmlns="http://www.w3.org/2000/svg" viewBox="0 0 819.77 170.04"><defs><style>.cls-1{fill:#ffb000;}</style></defs><g id="Layer_1" data-name="Layer 1"><path d="M135.3,28.19q0-4.87-4.47-9.2-6.42-6.15-17.72-6.14-9.92,0-21.91,4.32a34.66,34.66,0,0,0-10.88,6.14q-7.12,6.15-7.12,12.28,0,8.23,10.47,14.79,3.9,2.37,15.7,7.75a169.09,169.09,0,0,1,17.23,8.72q8.24,5,11.37,10.74a22.34,22.34,0,0,1,3.14,10.61q0,7-4.6,14.23-8.1,13-23.73,22.33-18,10.87-43.39,10.88-24.42,0-38.79-12.42Q9.43,113.74,9.43,98.8q0-9.48,6.91-20.93t17-16.19a5.5,5.5,0,0,1,3.14-.55c.7.18.12,1.07-1.74,2.65a42.3,42.3,0,0,0-9.63,10.46,48.73,48.73,0,0,0-7.81,26.66,27,27,0,0,0,5.3,16.6Q32,130.19,55.48,131.87q2.66.28,7.88.28a74.24,74.24,0,0,0,14.24-1.88A68.36,68.36,0,0,0,95,124.06q18-9.5,23.3-24.56A24.51,24.51,0,0,0,120,90.85q0-9.5-8.51-16.75-4.6-3.61-18.77-9.69t-19-9.28Q62.88,47.87,62.88,38q0-8.64,9.63-16.88Q86.31,9.35,111.58,9.36q11.85,0,19.32,3.56T140,23.59a13.9,13.9,0,0,1,.28,2.79q0,5.45-5,9.77A26.45,26.45,0,0,1,126,40.61c-1.68.47-2.61.28-2.79-.55q-.28-1.81,3.49-2.24c4.46-.55,7.2-2.79,8.23-6.69A11.16,11.16,0,0,0,135.3,28.19Z"/><path d="M149.39,101.45a27.7,27.7,0,0,0-1.95,10.61,10.08,10.08,0,0,0,1.74,6.21,5.85,5.85,0,0,0,4.95,2.3q12.7,0,23-23.86,1-2.23,2.37-1.95a.65.65,0,0,1,.56.69q0,.57-3.14,7.33a59.23,59.23,0,0,1-6.35,11q-7.12,9.76-17.58,9.77a13.43,13.43,0,0,1-9.49-3.63q-3.92-3.63-3.91-9.9a34.09,34.09,0,0,1,3-13.33,51.1,51.1,0,0,1,8.16-13.12,31.5,31.5,0,0,1,11.86-8.86,15.4,15.4,0,0,1,6.14-1.39,9.61,9.61,0,0,1,5.45,1.67,5.6,5.6,0,0,1,2.37,4.33q0,8.37-10,16a29.84,29.84,0,0,1-8.65,4.26A29.46,29.46,0,0,1,149.39,101.45Zm23.44-22.32c0-1.86-.74-2.79-2.23-2.79q-3.91,0-11.86,9.62a71,71,0,0,0-8.37,13.12,22.15,22.15,0,0,0,6.9-1.67,26.83,26.83,0,0,0,7.89-4.47Q172.83,86.39,172.83,79.13Z"/><path d="M184,99.85q-1.11,3.29-1.88,6.28a24.21,24.21,0,0,0-.77,6,11.55,11.55,0,0,0,1.4,5.58,4.7,4.7,0,0,0,4.46,2.58q5,0,9.77-6.77A143.82,143.82,0,0,0,207,96.29c.74-1.3,1.44-1.81,2.09-1.53a1.1,1.1,0,0,1,.28,1.46c-.28.61-.86,1.91-1.75,3.91s-1.53,3.39-1.95,4.18-1.16,2.19-2.23,4.19a30,30,0,0,1-2.79,4.47c-.79,1-1.86,2.23-3.21,3.76a18.46,18.46,0,0,1-13.05,6.49,10.58,10.58,0,0,1-6.7-1.88,7.44,7.44,0,0,1-2.86-4,18,18,0,0,1-.49-3.84c0-1.11,0-2.55.14-4.32a41,41,0,0,1,1.75-8.65q1.32-4.19,1.46-4.75a195.28,195.28,0,0,1,9.14-25.25A194.12,194.12,0,0,1,196.9,49.89a59.82,59.82,0,0,1,6.49-9.42q4.74-5,9.35-5,3.21,0,4.32,4.61a12.17,12.17,0,0,1,.14,2.09q0,4.74-3.35,12-12,26.66-28.6,41.86C185.15,96.38,184.74,97.66,184,99.85Zm16.47-26.58A136.22,136.22,0,0,0,210.72,54.5Q214,46.76,214,44c0-1.86-.32-2.79-1-2.79q-1.4,0-5.31,5.51T197.18,66.5q-6.63,14.31-10.81,25A110.59,110.59,0,0,0,200.46,73.27Z"/><path d="M213.3,101.45a27.51,27.51,0,0,0-2,10.61,10,10,0,0,0,1.75,6.21,5.85,5.85,0,0,0,4.95,2.3q12.69,0,23-23.86c.65-1.49,1.44-2.14,2.38-1.95a.65.65,0,0,1,.55.69c0,.38-1,2.82-3.14,7.33a59.25,59.25,0,0,1-6.34,11q-7.12,9.76-17.59,9.77a13.45,13.45,0,0,1-9.49-3.63q-3.9-3.63-3.9-9.9a34.09,34.09,0,0,1,3-13.33,51.1,51.1,0,0,1,8.16-13.12,31.42,31.42,0,0,1,11.86-8.86,15.4,15.4,0,0,1,6.14-1.39,9.58,9.58,0,0,1,5.44,1.67,5.61,5.61,0,0,1,2.38,4.33q0,8.37-10,16a29.84,29.84,0,0,1-8.65,4.26A29.46,29.46,0,0,1,213.3,101.45Zm23.44-22.32c0-1.86-.75-2.79-2.23-2.79q-3.91,0-11.87,9.62a72,72,0,0,0-8.37,13.12,22.26,22.26,0,0,0,6.91-1.67,26.65,26.65,0,0,0,7.88-4.47Q236.74,86.39,236.74,79.13Z"/><path d="M267.15,90.85Q272,85,272,80.94t-3.35-4q-6.56,0-14.93,12a50.47,50.47,0,0,0-5.16,9.9,29.62,29.62,0,0,0-2.52,11.1,14.34,14.34,0,0,0,2,8,7,7,0,0,0,6.28,3.07,15.91,15.91,0,0,0,7.88-2,22.7,22.7,0,0,0,6.91-6.42,76,76,0,0,0,4.95-7.33q1.68-2.93,4.61-8.79c.65-1.3,1.2-1.84,1.67-1.61a1.08,1.08,0,0,1,.7,1,22.45,22.45,0,0,1-1.88,4.61q-1.89,4-3.77,7.46a53.6,53.6,0,0,1-5.37,7.82q-6.29,7.82-17.17,7.81-7.81,0-11.23-3.84a12.9,12.9,0,0,1-3.42-8.86,35.26,35.26,0,0,1,3-13.39,58.86,58.86,0,0,1,6.91-12.56q8.08-11,18.7-11,5.16,0,7.46,2.45a8,8,0,0,1,2.3,5.65,10.3,10.3,0,0,1-3.9,8.09c-1.31,1.21-2.4,1.81-3.28,1.81A3.15,3.15,0,0,1,267.15,90.85Z"/><path d="M274.27,111.78q0-11.58,11.16-38.79h-7.25a.9.9,0,0,1-.91-.77,2.2,2.2,0,0,1,.14-1.53,1.11,1.11,0,0,1,1-.77h8.37a206.19,206.19,0,0,1,9.35-18.42q4.32-7.39,7.95-10t5.23-2.58a6.74,6.74,0,0,1,2.31.28q3.21,1.53,3.21,6.35t-3.21,11.65q-3.21,6.84-6.28,12.7h6.7a.89.89,0,0,1,.9.77,2.2,2.2,0,0,1-.14,1.53,1.12,1.12,0,0,1-1,.77h-8.1a101.13,101.13,0,0,1-18.56,23l-3.21,14.23a16.35,16.35,0,0,0-.41,3.56,7.46,7.46,0,0,0,1,3.56,3.25,3.25,0,0,0,3.07,1.81,10.91,10.91,0,0,0,5.31-1.67q6.69-5,14.79-21.07A2.58,2.58,0,0,1,307,94.9c.51-.19.82-.08.91.34a4,4,0,0,1-.42,2,131.52,131.52,0,0,1-7.25,13.67q-7.55,12.14-16.05,12.14a9,9,0,0,1-7.12-3.21A11.88,11.88,0,0,1,274.27,111.78ZM300.5,73H294q-1.68,3.9-7.54,18.56A106.84,106.84,0,0,0,300.5,73Zm1.82-3.07q9.21-16.47,9.21-22.89c0-1.86-.33-2.79-1-2.79q-1.53,0-4.67,4.47T295.34,69.92Z"/><path d="M311.81,101.45a27.51,27.51,0,0,0-2,10.61,10,10,0,0,0,1.75,6.21,5.85,5.85,0,0,0,4.95,2.3q12.7,0,23-23.86c.66-1.49,1.45-2.14,2.38-1.95a.65.65,0,0,1,.56.69q0,.57-3.14,7.33a59.23,59.23,0,0,1-6.35,11q-7.12,9.76-17.58,9.77a13.41,13.41,0,0,1-9.49-3.63Q302,116.24,302,110a34.09,34.09,0,0,1,3-13.33,51.1,51.1,0,0,1,8.16-13.12,31.42,31.42,0,0,1,11.86-8.86,15.4,15.4,0,0,1,6.14-1.39,9.56,9.56,0,0,1,5.44,1.67A5.58,5.58,0,0,1,339,79.27q0,8.37-10,16a29.84,29.84,0,0,1-8.65,4.26A29.46,29.46,0,0,1,311.81,101.45Zm23.44-22.32c0-1.86-.75-2.79-2.23-2.79q-3.91,0-11.86,9.62a71.51,71.51,0,0,0-8.38,13.12,22.19,22.19,0,0,0,6.91-1.67,26.65,26.65,0,0,0,7.88-4.47Q335.25,86.39,335.25,79.13Z"/><path d="M369.43,114.85c0,3,1.21,4.46,3.63,4.46q6.56,0,17.44-21.9c.28-.56.54-1.12.77-1.68a1.86,1.86,0,0,1,1.12-1.11c.51-.19.86-.07,1.05.34a2.91,2.91,0,0,1-.28,2q-11.18,26-22.61,26a6.87,6.87,0,0,1-6-3.35,11.88,11.88,0,0,1-2.23-6.62,24.72,24.72,0,0,1,.7-6.07q-8.1,13.39-14,15.21a8.59,8.59,0,0,1-3.28.69,11.88,11.88,0,0,1-3.14-.42q-6.84-1.8-6.83-10.88a35.46,35.46,0,0,1,3.13-13.6,56.42,56.42,0,0,1,8.87-14.31,28.08,28.08,0,0,1,13.81-9.21,22,22,0,0,1,6.91-1,19.63,19.63,0,0,1,8.86,2.51q9.48-17.86,16.18-33.07,2-4.6,3.84-5.93a6.17,6.17,0,0,1,3.49-1.33h2c.23,0,1.12.12,2.66.35a14.87,14.87,0,0,0,3.55.21q-3.21,2.93-17,28.46-17.58,32.65-21.21,43.54A21.51,21.51,0,0,0,369.43,114.85Zm6.84-36.7a6.88,6.88,0,0,0-5.09-1.81q-3.29,0-9.14,4.88a64.53,64.53,0,0,0-15.49,19.26Q342.5,108,342.5,112.9a8.85,8.85,0,0,0,.91,4,3,3,0,0,0,2.86,1.82q4.74,0,11.72-9.77T376.27,78.15Z"/><path d="M542.71,117.92A44.67,44.67,0,0,1,514,128.38q-18,0-22.19-10a14.42,14.42,0,0,1-1-5.51c0-2.1,1.06-4.35,3.2-6.77q5-5.73,14-5.72A35.83,35.83,0,0,1,520,102.5q6.06,2.16,21.56,10.4A93.21,93.21,0,0,0,555.55,95a241.61,241.61,0,0,0,12.07-21.55q5.1-10.4,12.42-22.68a131.13,131.13,0,0,1,14.58-20.37,63.68,63.68,0,0,0-33.21-9.35,74.16,74.16,0,0,0-14.79,1.53Q525,27.22,513.69,41.45q-7,8.65-7,16.47,0,10.6,10.19,13.81a24.76,24.76,0,0,0,6.28,1,24.19,24.19,0,0,0,5.93-.84A14.92,14.92,0,0,0,535.6,68q6.14-6.13,6.55-11.44c.1-.84.63-1.14,1.61-.91s1.37,1,1.19,2.17Q543.55,68,534.2,73.27a24.08,24.08,0,0,1-11.44,3.07l-7.26-1.26q-10.61-3.63-13.95-13.54a21.55,21.55,0,0,1-1.4-7.53q0-7.66,5.73-15.21,12.27-16.47,43.53-21.07a89.45,89.45,0,0,1,12.14-.84,78.62,78.62,0,0,1,37,9.21,60.38,60.38,0,0,1,10.05-9.56c3.07-2.18,5.53-3.28,7.39-3.28,1,0,1.63.21,1.82.63a.83.83,0,0,1-.07,1,1.26,1.26,0,0,1-.91.35q-2.37,0-6.14,5a80.11,80.11,0,0,0-6.14,9.35A65.56,65.56,0,0,1,627.27,55a59.08,59.08,0,0,1,6.28,27.07q0,18.14-8.65,28.88a38.63,38.63,0,0,1-17.3,12.42,71.28,71.28,0,0,1-24,4.33Q559.6,127.69,542.71,117.92ZM538,115.69q-16.32-7.81-20.65-9.35a25,25,0,0,0-8.44-1.54,8,8,0,0,0-6.56,3.07q-2.44,3.07-2.45,5.51a10.4,10.4,0,0,0,1.12,4.68q2.92,6,12,6A41.82,41.82,0,0,0,538,115.69Zm8.09-.28q14.1,8.37,33.07,8.37,22.05,0,35.17-12.56Q624.76,101,624.76,83a58.79,58.79,0,0,0-5-24.14,61.24,61.24,0,0,0-18.56-24q-4,6.28-15.56,25.33T566.16,91.13q-8,11.85-12.56,16.81A99.78,99.78,0,0,1,546.06,115.41Z"/><path d="M658.67,67q0,6.27-7.95,11.86,2.78.14,7.46.14t11.79-.7a5.1,5.1,0,0,1,.28,2.23,14.34,14.34,0,0,1-1.67,5.37c-1.12,2.38-2.12,4.42-3,6.14l-2.52,4.89c-.79,1.53-1.67,3.42-2.65,5.65s-1.79,4.28-2.44,6.14q-3.5,10.61,1.12,10.6,5.85,0,17.3-23.3c.65-1.21,1.19-1.67,1.61-1.39a1.23,1.23,0,0,1,.62,1,19.42,19.42,0,0,1-1.81,4.33c-1.21,2.46-2.51,5-3.91,7.6a51.63,51.63,0,0,1-6.56,9.07q-5.3,6.42-10.18,6.42-5.45,0-7.54-6.56a12.59,12.59,0,0,1-.42-3.76,20,20,0,0,1,1.61-6.7,73,73,0,0,1,5.09-10.19q3.5-6,3.91-7.05a5.38,5.38,0,0,0,.42-2q0-4.32-11.17-4.6l-1.67,4.46q-8.79,23-16.88,30.84c-.93.84-1.4.56-1.4-.84a2.16,2.16,0,0,1,.28-1,106.92,106.92,0,0,0,13.53-24.42,132.58,132.58,0,0,0,8-26.79q.84-4.34,3.9-4.33t4.47,3.91A9.2,9.2,0,0,1,658.67,67Z"/><path d="M701.51,74.1q10.18,0,10.18,12.84a30.23,30.23,0,0,1-3.07,12.56A49.56,49.56,0,0,1,696.9,116q1.82,3.48,6.56,3.48,3.76,0,7.12-3.76a38.39,38.39,0,0,0,6-7.61l2.65-4.81c.56-1,1.28-2.49,2.16-4.4L723,95.38a1,1,0,0,1,1-.62c.93-.1,1.4.23,1.4,1a2.34,2.34,0,0,1-.28,1l-.84,2c-.56,1.31-1,2.24-1.25,2.79s-.77,1.56-1.47,3-1.3,2.58-1.81,3.42-1.21,2-2.1,3.35a31.51,31.51,0,0,1-2.37,3.35q-1.05,1.26-2.58,2.79a15.62,15.62,0,0,1-2.93,2.37,12.84,12.84,0,0,1-6.56,2.1q-5.71,0-8.93-3.63-6.42,4.74-11.86,4.74-10.18,0-10.19-12.83a30.35,30.35,0,0,1,3.07-12.56,46.84,46.84,0,0,1,11.79-16.61Q694.67,74.1,701.51,74.1ZM703,78.43q-3.76,0-8.93,5a46.26,46.26,0,0,0-9.21,13.68Q680,107.18,680,113.59c0,4.28,1.62,6.42,4.88,6.42,2.33,0,4.93-1.25,7.82-3.77a11.71,11.71,0,0,1-2.24-6.83q.28-6,4.89-6a4,4,0,0,1,3,1.25,3.56,3.56,0,0,1,1.18,2.31,8.78,8.78,0,0,1-.28,2.16,79.55,79.55,0,0,0,5.45-9.91,31.58,31.58,0,0,0,3.48-14Q708.2,78.43,703,78.43Z"/><path d="M764.72,85a34.32,34.32,0,0,1-3.21,13.53,59.94,59.94,0,0,1-8.86,14.24,28.56,28.56,0,0,1-13.75,9.35,27.2,27.2,0,0,1-7,.83,18.83,18.83,0,0,1-8.73-2.51L709.88,153.5q-2.1,4.47-3.91,5.86a5.8,5.8,0,0,1-3.49,1.4h-2a24.48,24.48,0,0,1-2.51-.42,11.42,11.42,0,0,0-3.28-.28q3.08-2.92,15.56-27.84t14.16-33.56c-1,1.49-2,2.28-2.93,2.37-.56,0-.56-.53,0-1.6s1.49-3.14,2.79-6.21a28.82,28.82,0,0,0,2.51-11.09q0-5.1-2-5.93a82.09,82.09,0,0,1,9.77-1.33,1.7,1.7,0,0,1,1.74,1.19,8.46,8.46,0,0,1,.35,2.51,54.78,54.78,0,0,1-3.91,19l2.79-4.47q5-8.08,7.33-10.46c1.53-1.59,3.18-3.21,5-4.89,2.7-2.6,5.31-3.91,7.82-3.91a7.82,7.82,0,0,1,2.09.28Q764.71,75.92,764.72,85Zm-6.7-1.4a9.27,9.27,0,0,0-.91-4.11,3,3,0,0,0-2.86-1.89q-4.89,0-11.37,9.07t-18.63,31.68a6.78,6.78,0,0,0,5,1.81q3.21,0,9.07-4.88A65.65,65.65,0,0,0,754,95.87Q758,88.34,758,83.59Z"/><path d="M781.74,120.29a19.1,19.1,0,0,0,2.51.28q5.58,0,11-6.56,2.93-3.63,10.46-18.28a1,1,0,0,1,1-.7c.84-.09,1.25.24,1.25,1a6.24,6.24,0,0,1-.62,1.61c-.42.88-.82,1.76-1.19,2.65s-1,2.16-1.81,3.83-1.56,3-2.17,4.05-1.37,2.28-2.3,3.77a16.35,16.35,0,0,1-2.79,3.49l-2.93,3.07a13.21,13.21,0,0,1-5.58,3.35,17,17,0,0,1-10.05.28,14.79,14.79,0,0,1-5.72,1.39q-9.91,0-12-7.81a19.83,19.83,0,0,1-.42-4.4,8.2,8.2,0,0,1,1.75-5q1.74-2.37,3.69-2.51Q773,90.29,778,79.41q5.58-11.86,13-11.86a8.85,8.85,0,0,1,3.84.9c1.25.61,1.72,1.28,1.39,2s-1,.88-2,.41a6.67,6.67,0,0,0-2.65-.69,4.38,4.38,0,0,0-2,.41q-4.75,2.23-4.75,9.63a15.76,15.76,0,0,0,1.12,6.42q1.11,2.52,2.51,5.44,3.21,7.26,3.21,11.86a16.38,16.38,0,0,1-2.93,9.07A26,26,0,0,1,781.74,120.29Zm-15.21-4.74a13.26,13.26,0,0,0,.14,1.81,4.87,4.87,0,0,0,5.16,3.77,6.21,6.21,0,0,0,2.79-.56q-5.16-3.21-5.58-10.46A7.59,7.59,0,0,0,766.53,115.55ZM777,119.31q6.13-4.74,6.14-15.35a98.45,98.45,0,0,0-1-11.86,97.89,97.89,0,0,1-1-10.18,31.32,31.32,0,0,1,.14-3.63Q770.71,99.5,768.21,104.1q2.92,0,2.93,4.19Q771.14,116.53,777,119.31Z"/><path class="cls-1" d="M461.87,90.2h0v0a17.43,17.43,0,0,0-1-2c-2.62-5.35-4.79-9.67-6.3-12.64-3.16-6.2-4.39-8.46-5.75-12.21a60.39,60.39,0,0,1-3.11-12.92,46.73,46.73,0,0,1-6,18.91c-2.21,3.94-5.44,9.93-9.95,19a15.29,15.29,0,0,0-.73,1.46l0,.07h0a17.83,17.83,0,1,0,32.83.39Z"/></g></svg>