<svg id="Layer_1" data-name="Layer 1" xmlns="http://www.w3.org/2000/svg" viewBox="0 0 40.11 218.48"><path d="M31.14,201.63c1.25,0,6.2,0,7.28-.12a.75.75,0,0,1,.46.79c-.71.5-2.16,1.7-6.28,5.32l-11,9.65c-1.29,1.13-4.7,4-5.61,4.83v.08a10.34,10.34,0,0,0,2.7.21h9.07c2,0,7.37,0,8.61-.75.46-.25.71-1.08.8-2.12l.12-1.29a.75.75,0,0,1,1,.09c-.08,1.87-.12,3.32-.12,4.86,0,1.75,0,2.87.12,4.33a.77.77,0,0,1-1,.08l-.12-1.12c-.13-1-.38-1.62-.84-1.83-1.49-.58-6.57-.54-8.57-.54h-12a3.83,3.83,0,0,0-3,.91,4.59,4.59,0,0,0-1,2.58l-.08.71a.73.73,0,0,1-1-.08c.13-1.75.13-4,.13-4.7a13.92,13.92,0,0,0-.13-1.92c2.12-.83,7.61-5.74,9.15-7.11l4.54-4c3.2-2.87,5.53-4.91,7.53-6.86v-.09a4.36,4.36,0,0,0-1.75-.16H21.2c-2,0-7.37,0-8.61.83-.38.25-.63.91-.84,2.58l-.08.71c-.25.29-.91.25-1-.09.08-1.91.13-3.33.13-4.91,0-1.79,0-2.87-.13-4.28a.73.73,0,0,1,1-.09l.08.59c.21,1.33.54,2.16.88,2.33,1.5.7,6.65.62,8.57.62Z" transform="translate(-8.47 -10)"/><path d="M46.79,194.13a1.55,1.55,0,0,1-1.67-1.66v-.8a1.51,1.51,0,0,0-.75-1.37,26.8,26.8,0,0,0-4.61-2.41,6.2,6.2,0,0,0-1.79-.42,7.87,7.87,0,0,0-2.87.71l-8.91,3.24c-2,.71-3,1-3.24,2.46l-.21,1c-.21.25-.92.21-1-.12.08-1.34.12-2.58.12-4,0-1.12,0-2.29-.12-3.62.12-.33.83-.37,1-.08l.21,1c.12.58.25.92.54.92a31.55,31.55,0,0,0,3.91-1.21l3.83-1.33a22.81,22.81,0,0,0,2.95-1.21,20.5,20.5,0,0,0-3.08-1.54l-3.29-1.41a19.07,19.07,0,0,0-4.16-1.46c-.29,0-.58.25-.7,1l-.21,1.29c-.21.29-.92.25-1-.08.08-1.34.12-2.58.12-3.67s0-2-.12-3.16a.7.7,0,0,1,1-.08l.12.71c.25,1.37,1.46,2.12,4.41,3.53l4.79,2.33c2.79,1.38,10,4.79,14.56,6.83a2.76,2.76,0,0,1,2,2.66A1.67,1.67,0,0,1,46.79,194.13Z" transform="translate(-8.47 -10)"/><path d="M14.75,169.36c-2.46,0-2.71,0-3.45,1.29l-.25.42a.64.64,0,0,1-.84,0,29.22,29.22,0,0,0-1.74-4.49.45.45,0,0,1,.25-.42c1.24,0,3.32.13,5.16.13h8.73c.38,0,.71,0,.79-.17a9.5,9.5,0,0,1-2.16-5.62c0-3.95,2.45-5.36,5.37-5.36h7c3,0,3.45-.09,3.62-1.59l.12-1.12a.73.73,0,0,1,1,.08c-.08,1.5-.12,2.71-.12,4.16s0,2.75.12,3.87a.72.72,0,0,1-1,.09l-.12-.83c-.25-1.54-.63-1.59-3.62-1.59h-6c-2.67,0-4.46,1.29-4.46,4a5,5,0,0,0,1.13,3.24c.62.75.83.88,2.29.88h7c3,0,3.41-.09,3.62-1.58l.12-.88c.17-.29.92-.21,1,.08-.08,1.25-.12,2.46-.12,3.92s0,2.74.12,4.07a.73.73,0,0,1-1,.09l-.12-1c-.17-1.54-.63-1.59-3.62-1.59Z" transform="translate(-8.47 -10)"/><path d="M27.56,143.38c0,1.08.09,1.12,1.13,1.12,4.2,0,7.78-2.45,7.78-6.9a4.49,4.49,0,0,0-2-3.83.55.55,0,0,1,.5-.75,7.27,7.27,0,0,1,3.87,6.53,7.47,7.47,0,0,1-2.75,6,8.88,8.88,0,0,1-5.41,1.74c-5.11,0-9.4-3.37-9.4-8.36,0-3.58,2.45-5.91,5-5.91a2.58,2.58,0,0,1,1.08.17c.25.12.29.71.29,2.45Zm-1.24-2.58c0-3.08-.17-4-.42-4.33-.08-.12-.25-.25-.79-.25-1.17,0-2.62.8-2.62,3.21s2.24,4.58,3.62,4.62c.08,0,.21,0,.21-.29Z" transform="translate(-8.47 -10)"/><path d="M32.14,110.88c3.29,0,4.83,0,4.83-1.21a6.87,6.87,0,0,0-.42-1.79c.08-.29,1.12-.33,1.33.05a32.29,32.29,0,0,0,1.33,5.49c0,.25-.12.46-.33.46h-.71a4.85,4.85,0,0,0-1.29.08v.16a8.7,8.7,0,0,1,1.92,5.25c0,4.62-3.62,7.69-8,7.69-5.83,0-9.57-4.41-9.57-10.06a8.76,8.76,0,0,1,.37-2.79c0-.21-.25-.25-.58-.25H14.75c-2.46,0-2.71,0-3.45,1.29l-.25.41a.64.64,0,0,1-.84,0,29.22,29.22,0,0,0-1.74-4.49.46.46,0,0,1,.25-.42c1.24,0,3.32.13,5.16.13ZM25.9,114a2.37,2.37,0,0,0-1.62.46,4.31,4.31,0,0,0-1.75,3.49c0,3.79,3.29,5.74,6.91,5.74,3.78,0,7.36-2.12,7.36-6.2a5.13,5.13,0,0,0-1.16-3.2A2.54,2.54,0,0,0,34.1,114Z" transform="translate(-8.47 -10)"/><path d="M22,92.57a9.81,9.81,0,0,1,3.37-.66.71.71,0,0,1,.12,1c-1.83.71-3,2-3,3.66A2.46,2.46,0,0,0,25,99.23c1.71,0,2.63-1.75,3.46-3.21,1.25-2.2,2.66-4.24,5.61-4.24,3.17,0,4.75,2.91,4.75,6a6.92,6.92,0,0,1-1.25,4.45,12,12,0,0,1-4.2.5.7.7,0,0,1,0-1c2.28-.71,4.28-2,4.28-4.41a2.56,2.56,0,0,0-2.66-2.79c-1.92,0-3,1.66-3.83,3.2-1.37,2.41-2.83,4.12-5.12,4.12-3,0-4.74-2.5-4.74-5.66A7.39,7.39,0,0,1,22,92.57Z" transform="translate(-8.47 -10)"/><path d="M14.75,84c-2.46,0-2.71,0-3.45,1.29l-.25.42a.64.64,0,0,1-.84,0,37.49,37.49,0,0,0-1.74-4.54.45.45,0,0,1,.25-.41c1.45.08,3.32.16,5.16.16h7.86c.71,0,.87-.16.87-.41a9.66,9.66,0,0,1-1.37-4.79,7.79,7.79,0,0,1,8.16-7.94c5.53,0,9.4,4,9.4,9.57a11.88,11.88,0,0,1-.54,3.53,9.14,9.14,0,0,0-.54,1.75c0,.33.33.66.62.87,0,0,0,.09,0,.17a.46.46,0,0,1-.25.42c-.58,0-1.37-.09-3.53-.09Zm17.81-3.08a5.76,5.76,0,0,0,3.62-1,4,4,0,0,0,1.37-3.16c0-3.91-3.33-5.45-6.91-5.45-4.28,0-7.61,2.21-7.61,6.33a5.46,5.46,0,0,0,.66,2.82c.3.42.75.5,2.38.5Z" transform="translate(-8.47 -10)"/><path d="M26.27,60.27c-1.62,0-1.83,0-2.58,1.12l-.24.37a.56.56,0,0,1-.75,0,34.2,34.2,0,0,0-2-4.2c0-.21.12-.33.29-.33h2.41c.21,0,.33,0,.38-.13-1.21-1.45-2.5-3-2.5-4.57a1.73,1.73,0,0,1,1.66-1.88,1.85,1.85,0,0,1,1.92,1.79,1.65,1.65,0,0,1-.29.92,3.38,3.38,0,0,0-.67,1.83,1.89,1.89,0,0,0,.83,1.5,6.43,6.43,0,0,0,3.21.54h5.66c3,0,3.49-.09,3.62-1.67L37.3,54a.72.72,0,0,1,1,.08c-.08,2-.12,3.16-.12,4.62s0,2.74.12,3.82a.72.72,0,0,1-1,.09l-.12-.79c-.25-1.54-.63-1.58-3.62-1.58Z" transform="translate(-8.47 -10)"/><path d="M27.56,42.78c0,1.09.09,1.13,1.13,1.13,4.2,0,7.78-2.46,7.78-6.91a4.5,4.5,0,0,0-2-3.83.55.55,0,0,1,.5-.75A7.28,7.28,0,0,1,38.8,39a7.47,7.47,0,0,1-2.75,6,8.82,8.82,0,0,1-5.41,1.75c-5.11,0-9.4-3.37-9.4-8.37,0-3.57,2.45-5.9,5-5.9a2.64,2.64,0,0,1,1.08.16c.25.13.29.71.29,2.46ZM26.32,40.2c0-3.07-.17-4-.42-4.32-.08-.13-.25-.25-.79-.25-1.17,0-2.62.79-2.62,3.2s2.24,4.58,3.62,4.62c.08,0,.21,0,.21-.29Z" transform="translate(-8.47 -10)"/><path d="M25.94,25.06c-1.54.62-2.87,1-3.08,2.5l-.12.83c-.33.25-.92.21-1-.13.08-1,.12-2.49.12-3.91,0-1.12,0-2-.12-3.37a.73.73,0,0,1,1,0l.08.5c.21,1.29.42,1.33,1.67.91,2.87-1,5.78-2.16,7.94-3.12a6.9,6.9,0,0,0,1.33-.66,4.79,4.79,0,0,0-1.58-.79l-6.11-2.37a9.13,9.13,0,0,0-2.58-.75c-.38,0-.54.25-.63.75l-.12.95a.76.76,0,0,1-1-.08q.12-1.94.12-3.12c0-1,0-1.75-.12-2.91a.77.77,0,0,1,1-.09l.08.63c.21,1.45,1.29,1.83,3.62,3,1.12.58,7.16,3.16,8.86,3.82,1,.42,2,.83,3.42,1.38a.48.48,0,0,1,.16.41.77.77,0,0,1-.16.54c-1.17.34-2.79,1-4.33,1.58Z" transform="translate(-8.47 -10)"/></svg>